<?xml version="1.0" standalone="no"?>
<!DOCTYPE svg PUBLIC "-//W3C//DTD SVG 20010904//EN"
 "http://www.w3.org/TR/2001/REC-SVG-20010904/DTD/svg10.dtd">
<svg version="1.0" xmlns="http://www.w3.org/2000/svg"
 width="512.000000pt" height="512.000000pt" viewBox="0 0 512.000000 512.000000"
 preserveAspectRatio="xMidYMid meet">
<metadata>
Created by potrace 1.14, written by Peter Selinger 2001-2017
</metadata>
<g transform="translate(0.000000,512.000000) scale(0.100000,-0.100000)"
fill="#000000" stroke="none">
<path d="M277 4800 c-95 -30 -173 -91 -221 -173 -57 -97 -56 -71 -56 -978 0
-926 -2 -890 66 -996 40 -63 139 -139 200 -154 l44 -11 0 -345 c0 -378 2 -392
59 -426 61 -36 133 -13 187 60 16 21 34 43 39 49 6 7 122 154 259 327 201 256
255 318 282 327 21 7 38 22 46 41 l13 29 97 0 98 0 0 -474 c0 -266 4 -496 10
-525 32 -169 165 -305 341 -347 13 -4 490 -7 1059 -9 569 -1 1042 -3 1051 -4
14 -1 88 -89 285 -341 35 -44 171 -216 285 -360 11 -14 43 -55 72 -92 29 -37
63 -73 76 -80 37 -20 105 -16 138 8 56 42 57 44 57 477 l1 398 57 20 c147 49
259 178 288 329 6 33 10 402 10 989 0 809 -2 945 -15 996 -26 97 -66 158 -155
237 -32 29 -88 57 -145 74 -55 16 -125 18 -830 20 -423 1 -773 2 -777 3 -5 0
-8 44 -8 96 0 92 1 96 25 105 46 17 52 49 50 250 -2 162 -5 192 -24 241 -41
106 -114 183 -221 230 l-55 24 -1315 2 c-1258 2 -1318 1 -1373 -17z"/>
</g>
</svg>
